<svg width="42" height="43" viewBox="0 0 42 43" fill="none" xmlns="http://www.w3.org/2000/svg">
<path d="M18.7538 40.4298C23.2755 39.6244 23.5457 35.2372 23.4475 32.3647C23.4298 31.8475 22.8282 31.5759 22.4201 31.8942L18.3037 35.105C18.1482 35.2262 18.0574 35.4123 18.0574 35.6094V39.8224C18.0574 40.1982 18.3838 40.4957 18.7538 40.4298Z" fill="#A1DE6E" stroke="black" stroke-width="3.41209"/>
<path d="M2.27203 24.3623C2.9039 19.8131 7.27759 19.3753 10.1517 19.3636C10.6692 19.3615 10.9637 19.9523 10.6612 20.3722L7.61017 24.6085C7.49497 24.7684 7.31247 24.8663 7.1155 24.8739L2.9056 25.035C2.53009 25.0494 2.22033 24.7345 2.27203 24.3623Z" fill="#A1DE6E" stroke="black" stroke-width="3.41209"/>
<path d="M34.8551 21.1349L16.7218 35.7652C16.4551 35.9804 16.0661 35.9472 15.8398 35.6899L7.2188 25.8934C7.01249 25.6589 7.00559 25.3098 7.20245 25.0674L21.0259 8.04604C21.1065 7.94677 21.215 7.87393 21.3374 7.83694L39.4256 2.37074C39.9119 2.22379 40.3672 2.67494 40.2248 3.16255L35.0675 20.8164C35.0308 20.9417 34.9567 21.0529 34.8551 21.1349Z" fill="#FFC309" stroke="black" stroke-width="3.41209"/>
<path fill-rule="evenodd" clip-rule="evenodd" d="M42 2.48488L38.9492 25.8677C38.8527 26.5399 38.4696 27.1373 37.899 27.5055L17.3269 37.2113C16.351 37.8409 15.0613 37.6617 14.2941 36.7899L6.72229 27.0409L9.28379 24.7868L17.6962 34.3464L35.4064 22.715L38.6225 2L42 2.48488Z" fill="black"/>
<path d="M9.74589 28.8839L5.89536 36.4138C5.61827 36.9557 6.18294 37.5419 6.73478 37.2852L13.9837 33.9136C14.1345 33.8435 14.252 33.7174 14.3114 33.5622L16.9643 26.6303C17.1692 26.0952 16.6212 25.5813 16.1003 25.8201L10.0489 28.5936C9.91816 28.6535 9.81139 28.7558 9.74589 28.8839Z" fill="#A1DE6E" stroke="black" stroke-width="3.41209"/>
<circle cx="27.196" cy="15.4643" r="3.41209" fill="#A1DE6E" stroke="black" stroke-width="3.41209"/>
</svg>
